<svg width="1012" height="506" viewBox="0 0 1012 506" fill="none" xmlns="http://www.w3.org/2000/svg">
<g clip-path="url(#clip0)">
<rect width="1012" height="506" fill="#083042"/>
<rect x="101.187" y="154.533" width="91.4219" height="375.284" fill="#07374E" fill-opacity="0.29"/>
<rect x="258.271" y="103.013" width="91.4219" height="375.284" fill="#07374E" fill-opacity="0.29"/>
<rect x="399.697" y="238.378" width="91.4219" height="375.284" fill="#07374E" fill-opacity="0.29"/>
<path d="M552.235 177.262L597.946 135.087L643.657 177.262V552.546H552.235V177.262Z" fill="#07374E" fill-opacity="0.29"/>
<rect x="684.064" y="87.8606" width="91.4219" height="375.284" fill="#07374E" fill-opacity="0.29"/>
<rect x="805.896" y="133.223" width="91.4219" height="375.284" fill="#07374E" fill-opacity="0.29"/>
<rect x="48.2031" y="223.747" width="91.4219" height="375.284" fill="#07374E"/>
<rect x="205.287" y="172.228" width="91.4219" height="375.284" fill="#07374E"/>
<path d="M346.713 307.592L392.424 261.201L438.135 307.592V682.877H346.713V307.592Z" fill="#07374E"/>
<path d="M499.252 246.476H590.674V621.76H499.252V246.476Z" fill="#07374E"/>
<rect x="631.081" y="157.075" width="91.4219" height="375.284" fill="#07374E"/>
<rect x="752.912" y="202.438" width="91.4219" height="375.284" fill="#07374E"/>
<rect x="920.578" y="77.4375" width="91.4219" height="375.284" fill="#07374E"/>
<path d="M292.393 448.217H434.75L460 496.217H258L292.393 448.217Z" fill="#05415F"/>
<rect x="258" y="496.217" width="202" height="60" fill="#073D56"/>
<path d="M458.162 431.458H1012V533.761L368.263 539.253L458.162 431.458Z" fill="#20617E"/>
<path d="M472.44 445.679H1026.28V547.982L382.541 553.474L472.44 445.679Z" fill="#175876"/>
<path d="M265.464 44.3097L-229.754 440.454L-207.637 438.915L374.406 215.136L265.464 44.3097Z" fill="#F0F7CF" fill-opacity="0.61"/>
<circle cx="331.109" cy="121.023" r="103.315" fill="#F0F7CF"/>
<path d="M105.834 157.492C105.834 152.369 109.987 148.217 115.109 148.217C120.232 148.217 124.385 152.369 124.385 157.492V404.972H105.834V157.492Z" fill="#084059"/>
<rect x="93.3203" y="177.661" width="43.5781" height="256.756" fill="#094764"/>
<rect x="74.1816" y="223.005" width="83.0337" height="256.756" fill="#0E4C68"/>
<rect x="61.8145" y="244.794" width="106.589" height="256.756" fill="#095173"/>
<rect x="48.2705" y="262.461" width="141.922" height="256.756" fill="#125676"/>
<rect x="98.1426" y="187.163" width="5.83843" height="31.8193" fill="#20617E"/>
<rect x="112.503" y="187.163" width="5.83843" height="31.8193" fill="#20617E"/>
<rect x="126.864" y="187.163" width="5.83843" height="31.8193" fill="#20617E"/>
<path d="M286.851 168.327C283.765 171.717 278.171 170.533 276.722 166.183L248.63 81.8103H279.957L290.74 124.548L322.08 88.7198L340.135 88.7206L340.14 88.7198L371.48 124.548L382.262 81.8103H413.59L385.497 166.183C384.049 170.533 378.455 171.717 375.368 168.327L331.11 119.72L286.851 168.327Z" fill="#083042" fill-opacity="0.91"/>
<path d="M323 468.217L308 484.217V458.217L323 442.217V468.217Z" fill="#084665"/>
<rect x="281" y="458.217" width="27" height="26" fill="#0A4A6A"/>
<path d="M295.7 442.217L281 458.217H308.3L323 442.217H295.7Z" fill="#0C5173"/>
</g>
<defs>
<clipPath id="clip0">
<rect width="1012" height="506" fill="white"/>
</clipPath>
</defs>
</svg>
